<svg width="9" height="9" viewBox="0 0 9 9" fill="none" xmlns="http://www.w3.org/2000/svg">
<path d="M5.11538 1.11538C5.11538 0.775 4.84038 0.5 4.5 0.5C4.15962 0.5 3.88462 0.775 3.88462 1.11538V3.88461H1.11538C0.775 3.88461 0.5 4.15961 0.5 4.5C0.5 4.84038 0.775 5.11538 1.11538 5.11538H3.88462V7.88461C3.88462 8.225 4.15962 8.5 4.5 8.5C4.84038 8.5 5.11538 8.225 5.11538 7.88461V5.11538H7.88462C8.225 5.11538 8.5 4.84038 8.5 4.5C8.5 4.15961 8.225 3.88461 7.88462 3.88461H5.11538V1.11538Z" fill="#3B82F6"/>
</svg>
