<svg width="24" height="24" viewBox="0 0 24 24" fill="none" xmlns="http://www.w3.org/2000/svg">
<path d="M21.408 11.4125L12.578 2.5825C12.208 2.2125 11.698 2.0025 11.168 2.0025H3.99805C2.89805 2.0025 1.99805 2.9025 1.99805 4.0025V11.1725C1.99805 11.7025 2.20805 12.2125 2.58805 12.5825L11.418 21.4125C12.198 22.1925 13.468 22.1925 14.248 21.4125L21.418 14.2425C22.198 13.4625 22.198 12.2025 21.408 11.4125ZM6.49805 8.0025C5.66805 8.0025 4.99805 7.3325 4.99805 6.5025C4.99805 5.6725 5.66805 5.0025 6.49805 5.0025C7.32805 5.0025 7.99805 5.6725 7.99805 6.5025C7.99805 7.3325 7.32805 8.0025 6.49805 8.0025Z" fill="#3B82F6"/>
</svg>
