<svg width="14" height="14" viewBox="0 0 14 14" fill="none" xmlns="http://www.w3.org/2000/svg">
<g clip-path="url(#clip0_249_623)">
<path d="M2.87383 8.46014C3.08437 9.05624 3.42617 9.61678 3.90742 10.0953C5.61641 11.8043 8.38633 11.8043 10.0953 10.0953L10.5629 9.62499H9.1875C8.70352 9.62499 8.3125 9.23397 8.3125 8.74999C8.3125 8.266 8.70352 7.87499 9.1875 7.87499H12.6738H12.6848C13.1687 7.87499 13.5598 8.266 13.5598 8.74999V12.25C13.5598 12.734 13.1687 13.125 12.6848 13.125C12.2008 13.125 11.8098 12.734 11.8098 12.25V10.85L11.3312 11.3312C8.93867 13.7238 5.06133 13.7238 2.66875 11.3312C2.00156 10.6641 1.52031 9.87929 1.225 9.03983C1.06367 8.58319 1.3043 8.08553 1.7582 7.92421C2.21211 7.76288 2.7125 8.0035 2.87383 8.45741V8.46014ZM1.06641 6.08944C0.929687 6.04843 0.798437 5.9746 0.691797 5.86522C0.582422 5.75585 0.508594 5.6246 0.470313 5.48241C0.462109 5.4496 0.453906 5.41405 0.448437 5.3785C0.440234 5.33202 0.4375 5.28554 0.4375 5.23905V1.74999C0.4375 1.266 0.828516 0.874989 1.3125 0.874989C1.79648 0.874989 2.1875 1.266 2.1875 1.74999V3.14725L2.66875 2.66874C5.06133 0.278895 8.93867 0.278895 11.3285 2.66874C11.9957 3.33593 12.4797 4.12069 12.775 4.95741C12.9363 5.41405 12.6957 5.91171 12.2418 6.07304C11.7879 6.23436 11.2875 5.99374 11.1262 5.53983C10.9156 4.94374 10.5738 4.38319 10.0926 3.90468C8.38359 2.19569 5.61367 2.19569 3.90469 3.90468L3.90195 3.90741L3.43437 4.37499H4.8125C5.29648 4.37499 5.6875 4.766 5.6875 5.24999C5.6875 5.73397 5.29648 6.12499 4.8125 6.12499H1.32344C1.27969 6.12499 1.23594 6.12225 1.19219 6.11679C1.14844 6.11132 1.10742 6.10311 1.06641 6.08944Z" fill="#3B82F6"/>
</g>
<defs>
<clipPath id="clip0_249_623">
<rect width="14" height="14" fill="white" transform="matrix(1 0 0 -1 0 14)"/>
</clipPath>
</defs>
</svg>
