<svg width="18" height="15" viewBox="0 0 18 15" fill="none" xmlns="http://www.w3.org/2000/svg">
<path d="M7.60087 7.26185C9.36865 7.26185 10.8014 5.86027 10.8014 4.13092C10.8014 2.40158 9.36865 1 7.60087 1C5.8331 1 4.40037 2.40158 4.40037 4.13092C4.40037 5.86027 5.8331 7.26185 7.60087 7.26185ZM6.4582 8.43594C3.99531 8.43594 2 10.3879 2 12.7972C2 13.1984 2.33255 13.5237 2.74262 13.5237H10.0713C9.99375 13.3084 9.97875 13.0736 10.0363 12.8437L10.4113 11.3736C10.4813 11.0972 10.6263 10.8477 10.8314 10.6472L11.839 9.66141C11.0364 8.90314 9.94624 8.43594 8.74105 8.43594H6.4582ZM17.3474 6.7653C16.9573 6.38372 16.3247 6.38372 15.9322 6.7653L15.1971 7.48444L16.9723 9.22112L17.7075 8.50199C18.0975 8.12041 18.0975 7.50156 17.7075 7.11753L17.3474 6.7653ZM11.399 11.2C11.2965 11.3003 11.2239 11.425 11.1889 11.5644L10.8139 13.0345C10.7789 13.169 10.8189 13.3084 10.9189 13.4063C11.0189 13.5041 11.1614 13.5433 11.299 13.509L12.8017 13.1421C12.9417 13.1079 13.0717 13.0369 13.1742 12.9366L16.4047 9.77393L14.6295 8.03724L11.399 11.2Z" fill="#3B82F6"/>
</svg>
