<svg width="14" height="14" viewBox="0 0 14 14" fill="none" xmlns="http://www.w3.org/2000/svg">
<path d="M7 0C3.13359 0 0 3.13359 0 7C0 10.8664 3.13359 14 7 14C10.8664 14 14 10.8664 14 7C14 3.13359 10.8664 0 7 0ZM6.69102 10.809L3.62852 7.74648C3.50273 7.6207 3.46719 7.43203 3.53281 7.2707C3.59844 7.10937 3.75977 7 3.9375 7H5.6875V4.375C5.6875 3.89102 6.07852 3.5 6.5625 3.5H7.4375C7.92148 3.5 8.3125 3.89102 8.3125 4.375V7H10.0625C10.2402 7 10.3988 7.10664 10.4672 7.2707C10.5355 7.43477 10.4973 7.62344 10.3715 7.74648L7.30898 10.809C7.13945 10.9785 6.86055 10.9785 6.69102 10.809Z" fill="#CBD5E1" fill-opacity="0.8"/>
</svg>
