<svg width="21" height="21" viewBox="0 0 21 21" fill="none" xmlns="http://www.w3.org/2000/svg">
<path d="M17.1666 2.16669H3.83329C2.91663 2.16669 2.17496 2.91669 2.17496 3.83335L2.16663 18.8334L5.49996 15.5H17.1666C18.0833 15.5 18.8333 14.75 18.8333 13.8334V3.83335C18.8333 2.91669 18.0833 2.16669 17.1666 2.16669ZM14.6666 12.1667H6.33329C5.87496 12.1667 5.49996 11.7917 5.49996 11.3334C5.49996 10.875 5.87496 10.5 6.33329 10.5H14.6666C15.125 10.5 15.5 10.875 15.5 11.3334C15.5 11.7917 15.125 12.1667 14.6666 12.1667ZM14.6666 9.66669H6.33329C5.87496 9.66669 5.49996 9.29169 5.49996 8.83335C5.49996 8.37502 5.87496 8.00002 6.33329 8.00002H14.6666C15.125 8.00002 15.5 8.37502 15.5 8.83335C15.5 9.29169 15.125 9.66669 14.6666 9.66669ZM14.6666 7.16669H6.33329C5.87496 7.16669 5.49996 6.79169 5.49996 6.33335C5.49996 5.87502 5.87496 5.50002 6.33329 5.50002H14.6666C15.125 5.50002 15.5 5.87502 15.5 6.33335C15.5 6.79169 15.125 7.16669 14.6666 7.16669Z" fill="#3B82F6"/>
</svg>
