<svg width="10" height="10" viewBox="0 0 10 10" fill="none" xmlns="http://www.w3.org/2000/svg">
<path d="M9 0H1C0.45 0 0.005 0.45 0.005 1L0 10L2 8H9C9.55 8 10 7.55 10 7V1C10 0.45 9.55 0 9 0ZM7.5 6H2.5C2.225 6 2 5.775 2 5.5C2 5.225 2.225 5 2.5 5H7.5C7.775 5 8 5.225 8 5.5C8 5.775 7.775 6 7.5 6ZM7.5 4.5H2.5C2.225 4.5 2 4.275 2 4C2 3.725 2.225 3.5 2.5 3.5H7.5C7.775 3.5 8 3.725 8 4C8 4.275 7.775 4.5 7.5 4.5ZM7.5 3H2.5C2.225 3 2 2.775 2 2.5C2 2.225 2.225 2 2.5 2H7.5C7.775 2 8 2.225 8 2.5C8 2.775 7.775 3 7.5 3Z" fill="#3B82F6"/>
</svg>
