<svg width="10" height="12" viewBox="0 0 10 12" fill="none" xmlns="http://www.w3.org/2000/svg">
<path d="M9.70615 2.70627C10.0968 2.31565 10.0968 1.68127 9.70615 1.29065C9.31553 0.900024 8.68115 0.900024 8.29053 1.29065L4.9999 4.5844L1.70615 1.29377C1.31553 0.903149 0.681152 0.903149 0.290527 1.29377C-0.100098 1.6844 -0.100098 2.31877 0.290527 2.7094L3.58428 6.00002L0.293652 9.29377C-0.0969727 9.6844 -0.0969727 10.3188 0.293652 10.7094C0.684277 11.1 1.31865 11.1 1.70928 10.7094L4.9999 7.41565L8.29365 10.7063C8.68428 11.0969 9.31865 11.0969 9.70928 10.7063C10.0999 10.3156 10.0999 9.68127 9.70928 9.29065L6.41553 6.00002L9.70615 2.70627Z" fill="#3B82F6"/>
</svg>
