<svg width="18" height="18" viewBox="0 0 18 18" fill="none" xmlns="http://www.w3.org/2000/svg">
<g clip-path="url(#clip0_79_2000)">
<path d="M13.7063 5.70627C14.0969 5.31565 14.0969 4.68127 13.7063 4.29065C13.3156 3.90002 12.6813 3.90002 12.2906 4.29065L9.00002 7.5844L5.70627 4.29377C5.31565 3.90315 4.68127 3.90315 4.29065 4.29377C3.90002 4.6844 3.90002 5.31877 4.29065 5.7094L7.5844 9.00002L4.29377 12.2938C3.90315 12.6844 3.90315 13.3188 4.29377 13.7094C4.6844 14.1 5.31877 14.1 5.7094 13.7094L9.00002 10.4156L12.2938 13.7063C12.6844 14.0969 13.3188 14.0969 13.7094 13.7063C14.1 13.3156 14.1 12.6813 13.7094 12.2906L10.4156 9.00002L13.7063 5.70627Z" fill="#3B82F6"/>
</g>
<defs>
<clipPath id="clip0_79_2000">
<rect width="10" height="16" fill="white" transform="translate(4 1)"/>
</clipPath>
</defs>
</svg>
