<svg width="16" height="19" viewBox="0 0 16 19" fill="none" xmlns="http://www.w3.org/2000/svg">
<g clip-path="url(#clip0_338_622)">
<path d="M4.82857 0.632143L4.57143 1.14286H1.14286C0.510714 1.14286 0 1.65357 0 2.28571C0 2.91786 0.510714 3.42857 1.14286 3.42857H14.8571C15.4893 3.42857 16 2.91786 16 2.28571C16 1.65357 15.4893 1.14286 14.8571 1.14286H11.4286L11.1714 0.632143C10.9786 0.242857 10.5821 0 10.15 0H5.85C5.41786 0 5.02143 0.242857 4.82857 0.632143ZM14.8571 4.57143H1.14286L1.9 16.6786C1.95714 17.5821 2.70714 18.2857 3.61071 18.2857H12.3893C13.2929 18.2857 14.0429 17.5821 14.1 16.6786L14.8571 4.57143Z" fill="#6099F6"/>
</g>
<defs>
<clipPath id="clip0_338_622">
<rect width="16" height="18.2857" fill="white"/>
</clipPath>
</defs>
</svg>
