<svg width="14" height="14" viewBox="0 0 14 14" fill="none" xmlns="http://www.w3.org/2000/svg">
<path d="M1.30156 8.21409L6.24258 12.827C6.44766 13.0184 6.71836 13.125 7 13.125C7.28164 13.125 7.55234 13.0184 7.75742 12.827L12.6984 8.21409C13.5297 7.44026 14 6.35471 14 5.21995V5.06135C14 3.15002 12.6191 1.52034 10.7352 1.20588C9.48828 0.998071 8.21953 1.40549 7.32812 2.2969L7 2.62502L6.67188 2.2969C5.78047 1.40549 4.51172 0.998071 3.26484 1.20588C1.38086 1.52034 0 3.15002 0 5.06135V5.21995C0 6.35471 0.470312 7.44026 1.30156 8.21409Z" fill="#3B82F6" fill-opacity="0.71"/>
</svg>
