<svg width="24" height="24" viewBox="0 0 24 24" fill="none" xmlns="http://www.w3.org/2000/svg">
<path d="M13.0014 3.69058V3.71058C13.0014 4.38058 13.4514 4.94058 14.0814 5.14058C16.9314 6.03058 19.0014 8.68058 19.0014 11.8206C19.0014 12.3406 18.9414 12.8306 18.8314 13.3106C18.6914 13.9506 18.9514 14.6106 19.5214 14.9506L19.5314 14.9606C20.3914 15.4606 21.5114 15.0106 21.7414 14.0506C21.9114 13.3306 22.0014 12.5806 22.0014 11.8206C22.0014 7.32058 19.0214 3.50058 14.9214 2.25058C13.9714 1.96058 13.0014 2.69058 13.0014 3.69058ZM10.9414 18.7406C7.95138 18.3106 5.52138 15.8806 5.08138 12.9006C4.54138 9.30058 6.74138 6.13058 9.91138 5.14058C10.5514 4.95058 11.0014 4.38058 11.0014 3.71058V3.69058C11.0014 2.69058 10.0314 1.96058 9.07138 2.25058C4.56138 3.63058 1.41138 8.11058 2.09138 13.2106C2.68138 17.5906 6.22138 21.1306 10.6014 21.7206C13.7414 22.1406 16.6414 21.1106 18.7314 19.1906C19.4714 18.5106 19.3414 17.3006 18.4714 16.8006C17.8914 16.4606 17.1714 16.5706 16.6714 17.0206C15.2014 18.3606 13.1614 19.0706 10.9414 18.7406Z" fill="#3B82F6"/>
</svg>
