<svg width="12" height="12" viewBox="0 0 12 12" fill="none" xmlns="http://www.w3.org/2000/svg">
<g clip-path="url(#clip0_104_2018)">
<path d="M0 1.99999C0 1.26457 0.597917 0.666656 1.33333 0.666656H4.66667V3.33332C4.66667 3.70207 4.96458 3.99999 5.33333 3.99999H8V4.80416C6.46042 5.23957 5.33333 6.65416 5.33333 8.33332C5.33333 9.56457 5.93958 10.6521 6.86875 11.3187C6.80208 11.3292 6.73542 11.3333 6.66667 11.3333H1.33333C0.597917 11.3333 0 10.7354 0 9.99999V1.99999ZM8 3.33332H5.33333V0.666656L8 3.33332ZM12 8.33332C12 9.98957 10.6562 11.3333 9 11.3333C7.34375 11.3333 6 9.98957 6 8.33332C6 6.67707 7.34375 5.33332 9 5.33332C10.6562 5.33332 12 6.67707 12 8.33332ZM10.6667 8.33332C10.6667 8.14999 10.5167 7.99999 10.3333 7.99999H7.66667C7.48333 7.99999 7.33333 8.14999 7.33333 8.33332C7.33333 8.51666 7.48333 8.66666 7.66667 8.66666H10.3333C10.5167 8.66666 10.6667 8.51666 10.6667 8.33332Z" fill="#3B82F6"/>
</g>
<defs>
<clipPath id="clip0_104_2018">
<rect width="12" height="10.6667" fill="white" transform="translate(0 0.666656)"/>
</clipPath>
</defs>
</svg>
