<svg width="12" height="12" viewBox="0 0 12 12" fill="none" xmlns="http://www.w3.org/2000/svg">
<path d="M0 2.00002C0 1.2646 0.597917 0.666687 1.33333 0.666687H4.66667V3.33335C4.66667 3.7021 4.96458 4.00002 5.33333 4.00002H8V4.80419C6.46042 5.2396 5.33333 6.65419 5.33333 8.33335C5.33333 9.5646 5.93958 10.6521 6.86875 11.3188C6.80208 11.3292 6.73542 11.3334 6.66667 11.3334H1.33333C0.597917 11.3334 0 10.7354 0 10V2.00002ZM8 3.33335H5.33333V0.666687L8 3.33335ZM9 11.3334C7.34375 11.3334 6 9.9896 6 8.33335C6 6.6771 7.34375 5.33335 9 5.33335C10.6562 5.33335 12 6.6771 12 8.33335C12 9.9896 10.6562 11.3334 9 11.3334ZM9.33333 7.00002C9.33333 6.81669 9.18333 6.66669 9 6.66669C8.81667 6.66669 8.66667 6.81669 8.66667 7.00002V8.00002H7.66667C7.48333 8.00002 7.33333 8.15002 7.33333 8.33335C7.33333 8.51669 7.48333 8.66669 7.66667 8.66669H8.66667V9.66669C8.66667 9.85002 8.81667 10 9 10C9.18333 10 9.33333 9.85002 9.33333 9.66669V8.66669H10.3333C10.5167 8.66669 10.6667 8.51669 10.6667 8.33335C10.6667 8.15002 10.5167 8.00002 10.3333 8.00002H9.33333V7.00002Z" fill="#3B82F6"/>
</svg>
