<svg width="12" height="12" viewBox="0 0 12 12" fill="none" xmlns="http://www.w3.org/2000/svg">
<path d="M0 1.99898C0 1.26357 0.597917 0.665649 1.33333 0.665649H4.66667V3.33232C4.66667 3.70107 4.96458 3.99898 5.33333 3.99898H8V6.61773L6.19167 8.42607C5.97708 8.64065 5.82708 8.90732 5.75417 9.20107L5.36458 10.7615C5.31667 10.9531 5.32708 11.1531 5.39167 11.3344H1.33333C0.597917 11.3344 0 10.7365 0 10.0011V1.99898ZM8 3.33232H5.33333V0.665649L8 3.33232ZM11.4542 5.57607L11.7542 5.87607C12.0792 6.20107 12.0792 6.72815 11.7542 7.05523L11.1417 7.66773L9.6625 6.18857L10.275 5.57607C10.6 5.25107 11.1271 5.25107 11.4542 5.57607ZM6.49792 9.35315L9.18958 6.66148L10.6687 8.14065L7.97708 10.8302C7.89167 10.9156 7.78542 10.9761 7.66667 11.0052L6.41458 11.3177C6.3 11.3469 6.18125 11.3136 6.09792 11.2302C6.01458 11.1469 5.98125 11.0281 6.01042 10.9136L6.32292 9.66148C6.35208 9.54482 6.4125 9.43648 6.49792 9.35107V9.35315Z" fill="#3B82F6"/>
</svg>
