<svg width="24" height="24" viewBox="0 0 24 24" fill="none" xmlns="http://www.w3.org/2000/svg">
<path d="M4.20361 18H15.2036C15.7536 18 16.2036 17.55 16.2036 17C16.2036 16.45 15.7536 16 15.2036 16H4.20361C3.65361 16 3.20361 16.45 3.20361 17C3.20361 17.55 3.65361 18 4.20361 18ZM4.20361 13H12.2036C12.7536 13 13.2036 12.55 13.2036 12C13.2036 11.45 12.7536 11 12.2036 11H4.20361C3.65361 11 3.20361 11.45 3.20361 12C3.20361 12.55 3.65361 13 4.20361 13ZM3.20361 7C3.20361 7.55 3.65361 8 4.20361 8H15.2036C15.7536 8 16.2036 7.55 16.2036 7C16.2036 6.45 15.7536 6 15.2036 6H4.20361C3.65361 6 3.20361 6.45 3.20361 7ZM20.5036 14.88L17.6236 12L20.5036 9.12C20.8936 8.73 20.8936 8.1 20.5036 7.71C20.1136 7.32 19.4836 7.32 19.0936 7.71L15.5036 11.3C15.1136 11.69 15.1136 12.32 15.5036 12.71L19.0936 16.3C19.4836 16.69 20.1136 16.69 20.5036 16.3C20.8836 15.91 20.8936 15.27 20.5036 14.88Z" fill="#B8BFCC"/>
</svg>
