<svg width="26" height="34" viewBox="0 0 26 34" fill="none" xmlns="http://www.w3.org/2000/svg">
<path d="M25.1503 25.4L23.0003 23.25V14.9167C23.0003 9.8 20.267 5.51667 15.5003 4.38333V3.25C15.5003 1.86667 14.3837 0.75 13.0003 0.75C11.617 0.75 10.5003 1.86667 10.5003 3.25V4.38333C5.717 5.51667 3.00033 9.78333 3.00033 14.9167V23.25L0.85033 25.4C-0.19967 26.45 0.533663 28.25 2.017 28.25H23.967C25.467 28.25 26.2003 26.45 25.1503 25.4ZM19.667 24.9167H6.33366V14.9167C6.33366 10.7833 8.85033 7.41667 13.0003 7.41667C17.1503 7.41667 19.667 10.7833 19.667 14.9167V24.9167ZM13.0003 33.25C14.8337 33.25 16.3337 31.75 16.3337 29.9167H9.667C9.667 31.75 11.1503 33.25 13.0003 33.25Z" fill="#B8BFCC"/>
</svg>
