<svg width="20" height="27" viewBox="0 0 20 27" fill="none" xmlns="http://www.w3.org/2000/svg">
<path d="M19.3463 19.5384L17.6925 17.8846V11.4744C17.6925 7.53844 15.5899 4.24357 11.9232 3.37177V2.49998C11.9232 1.43588 11.0643 0.576904 10.0002 0.576904C8.93608 0.576904 8.07708 1.43588 8.07708 2.49998V3.37177C4.39762 4.24357 2.30787 7.52562 2.30787 11.4744V17.8846L0.654025 19.5384C-0.153668 20.3461 0.410435 21.7308 1.55146 21.7308H18.4361C19.5899 21.7308 20.154 20.3461 19.3463 19.5384ZM15.1284 19.1667H4.87197V11.4744C4.87197 8.29483 6.80787 5.70511 10.0002 5.70511C13.1925 5.70511 15.1284 8.29483 15.1284 11.4744V19.1667ZM10.0002 25.5769C11.4105 25.5769 12.5643 24.4231 12.5643 23.0128H7.43608C7.43608 24.4231 8.57708 25.5769 10.0002 25.5769Z" fill="#B8BFCC"/>
</svg>
