<svg width="22" height="22" viewBox="0 0 22 22" fill="none" xmlns="http://www.w3.org/2000/svg">
<path d="M7.59323 10.4624C7.29634 9.99674 6.67814 9.85989 6.21244 10.1568C5.74674 10.4537 5.60989 11.0719 5.90677 11.5376L7.59323 10.4624ZM9.9375 16L9.09427 16.5376C9.28549 16.8375 9.62165 17.0133 9.97709 16.9992C10.3325 16.9851 10.6537 16.7833 10.8206 16.4692L9.9375 16ZM16.1331 6.46916C16.3922 5.98142 16.2069 5.37599 15.7192 5.11688C15.2314 4.85778 14.626 5.04311 14.3669 5.53084L16.1331 6.46916ZM20 11C20 15.9706 15.9706 20 11 20V22C17.0751 22 22 17.0751 22 11H20ZM11 20C6.02944 20 2 15.9706 2 11H0C0 17.0751 4.92487 22 11 22V20ZM2 11C2 6.02944 6.02944 2 11 2V0C4.92487 0 0 4.92487 0 11H2ZM11 2C15.9706 2 20 6.02944 20 11H22C22 4.92487 17.0751 0 11 0V2ZM5.90677 11.5376L9.09427 16.5376L10.7807 15.4624L7.59323 10.4624L5.90677 11.5376ZM10.8206 16.4692L16.1331 6.46916L14.3669 5.53084L9.05438 15.5308L10.8206 16.4692Z" fill="#3B82F6"/>
</svg>
