<svg width="11" height="11" viewBox="0 0 11 11" fill="none" xmlns="http://www.w3.org/2000/svg">
<path d="M0.609375 10.5V9.5625H2.64062L2.40625 9.375C1.73958 8.84375 1.25521 8.26562 0.953125 7.64062C0.651042 7.01562 0.5 6.31771 0.5 5.54688C0.5 4.44271 0.825521 3.45052 1.47656 2.57031C2.1276 1.6901 2.98438 1.08333 4.04688 0.75V1.71875C3.26562 2.02083 2.63542 2.52344 2.15625 3.22656C1.67708 3.92969 1.4375 4.70312 1.4375 5.54688C1.4375 6.20312 1.5599 6.77344 1.80469 7.25781C2.04948 7.74219 2.38021 8.16146 2.79688 8.51562L3.26562 8.84375V6.90625H4.20312V10.5H0.609375ZM6.96875 10.2656V9.28125C7.76042 8.97917 8.39062 8.47656 8.85938 7.77344C9.32812 7.07031 9.5625 6.29688 9.5625 5.45312C9.5625 4.95312 9.4401 4.44531 9.19531 3.92969C8.95052 3.41406 8.63021 2.95833 8.23438 2.5625L7.78125 2.15625V4.09375H6.84375V0.5H10.4375V1.4375H8.39062L8.625 1.65625C9.25 2.23958 9.71875 2.86458 10.0312 3.53125C10.3438 4.19792 10.5 4.83854 10.5 5.45312C10.5 6.55729 10.1771 7.55208 9.53125 8.4375C8.88542 9.32292 8.03125 9.93229 6.96875 10.2656Z" fill="#3B82F6" stroke="#3B82F6" stroke-width="0.8"/>
</svg>
