<svg width="11" height="12" viewBox="0 0 11 12" fill="none" xmlns="http://www.w3.org/2000/svg">
<path d="M6.09909 1.04107C5.98868 0.811902 5.75534 0.666069 5.49909 0.666069C5.24284 0.666069 5.01159 0.811902 4.89909 1.04107L3.55951 3.79732L0.567843 4.23899C0.317843 4.27649 0.109509 4.45149 0.0324259 4.69107C-0.0446574 4.93065 0.0178426 5.19524 0.197009 5.37232L2.36784 7.52024L1.85534 10.5557C1.81368 10.8057 1.91784 11.0598 2.12409 11.2077C2.33034 11.3557 2.60326 11.3744 2.82826 11.2557L5.50118 9.82857L8.17409 11.2557C8.39909 11.3744 8.67201 11.3577 8.87826 11.2077C9.08451 11.0577 9.18868 10.8057 9.14701 10.5557L8.63243 7.52024L10.8033 5.37232C10.9824 5.19524 11.047 4.93065 10.9678 4.69107C10.8887 4.45149 10.6824 4.27649 10.4324 4.23899L7.43868 3.79732L6.09909 1.04107Z" fill="#D7A743"/>
</svg>
