<svg width="13" height="14" viewBox="0 0 13 14" fill="none" xmlns="http://www.w3.org/2000/svg">
<path d="M8.59882 9.99895L8.70484 10.1092L8.81302 10.0011L9.48802 9.32607L9.59375 9.22033L9.48835 9.11427L7.14695 6.75814V3.805V3.655H6.99695H6.09695H5.94695V3.805V7.18V7.24041L5.98882 7.28395L8.59882 9.99895ZM4.11752 12.6652C4.86688 12.9886 5.66217 13.15 6.50195 13.15C7.34174 13.15 8.13702 12.9886 8.88638 12.6652C9.63323 12.343 10.2867 11.9024 10.8455 11.3436C11.4043 10.7847 11.8449 10.1313 12.1672 9.38443C12.4905 8.63507 12.652 7.83978 12.652 7C12.652 6.16022 12.4905 5.36493 12.1672 4.61557C11.8449 3.86872 11.4043 3.21526 10.8455 2.65643C10.2867 2.0976 9.63323 1.65704 8.88638 1.33478C8.13702 1.01142 7.34174 0.85 6.50195 0.85C5.66217 0.85 4.86688 1.01142 4.11752 1.33478C3.37068 1.65704 2.71722 2.0976 2.15839 2.65643C1.59956 3.21526 1.159 3.86872 0.836728 4.61557C0.513374 5.36493 0.351953 6.16022 0.351953 7C0.351953 7.83978 0.513374 8.63507 0.836728 9.38443C1.159 10.1313 1.59956 10.7847 2.15839 11.3436C2.71722 11.9024 3.37068 12.343 4.11752 12.6652ZM9.99589 10.4939C9.0237 11.4661 7.86172 11.95 6.50195 11.95C5.14219 11.95 3.98021 11.4661 3.00802 10.4939C2.03583 9.52174 1.55195 8.35977 1.55195 7C1.55195 5.64023 2.03583 4.47826 3.00802 3.50607C3.98021 2.53388 5.14219 2.05 6.50195 2.05C7.86172 2.05 9.0237 2.53388 9.99589 3.50607C10.9681 4.47826 11.452 5.64023 11.452 7C11.452 8.35977 10.9681 9.52174 9.99589 10.4939Z" fill="#3B82F6" stroke="#3B82F6" stroke-width="0.3"/>
</svg>
