<svg width="12" height="10" viewBox="0 0 12 10" fill="none" xmlns="http://www.w3.org/2000/svg">
<path d="M6.6 2.4C6.6 3.72563 5.52563 4.8 4.2 4.8C2.87438 4.8 1.8 3.72563 1.8 2.4C1.8 1.07438 2.87438 0 4.2 0C5.52563 0 6.6 1.07438 6.6 2.4ZM0 9.04313C0 7.19625 1.49625 5.7 3.34313 5.7H5.05688C6.90375 5.7 8.4 7.19625 8.4 9.04313C8.4 9.35063 8.15063 9.6 7.84312 9.6H0.556875C0.249375 9.6 0 9.35063 0 9.04313ZM9.45 5.85V4.65H8.25C8.00062 4.65 7.8 4.44938 7.8 4.2C7.8 3.95063 8.00062 3.75 8.25 3.75H9.45V2.55C9.45 2.30063 9.65063 2.1 9.9 2.1C10.1494 2.1 10.35 2.30063 10.35 2.55V3.75H11.55C11.7994 3.75 12 3.95063 12 4.2C12 4.44938 11.7994 4.65 11.55 4.65H10.35V5.85C10.35 6.09938 10.1494 6.3 9.9 6.3C9.65063 6.3 9.45 6.09938 9.45 5.85Z" fill="#D7A743"/>
</svg>
